# xmcd
#
# Track frame offsets: 
#        150
#        12810
#        29037
#        44541
#        54810
#        66135
#        78860
#        90010
#        106537
#        122445
#        135645
#        151059
#
# Disc length: 2160 seconds
#
# Revision: 0
# Processed by: cddbd v1.5.2PL0 Copyright (c) Steve Scherf et al.
# Submitted via: ExactAudioCopy v1.0b3
#
DISCID=7d086e0c
DTITLE=Guilherme De Brito - Folhas Secas
DYEAR=1988
DGENRE=Latin-Br-Samba
TTITLE0=Delírio
TTITLE1=Intriga
TTITLE2=Vou Me Abandonar
TTITLE3=Encontro Marcado
TTITLE4=Tua Saudade
TTITLE5=Canção Para Conservatõria
TTITLE6=Miragem
TTITLE7=Quando Eu Me Chamar Saudade
TTITLE8=Palco Vazio
TTITLE9=A Noite De Nõs Dois
TTITLE10=Aquele Despertar
TTITLE11=Folhas Secas
EXTD=
EXTT0=
EXTT1=
EXTT2=
EXTT3=
EXTT4=
EXTT5=
EXTT6=
EXTT7=
EXTT8=
EXTT9=
EXTT10=
EXTT11=
PLAYORDER=
